<svg width="24" height="24" viewBox="0 0 24 24" fill="none" xmlns="http://www.w3.org/2000/svg">
<g clip-path="url(#clip0_2003_45)">
<path d="M9.70757 5.29292L15.7076 11.2929C15.895 11.4804 16.0004 11.7348 16.0004 11.9999C16.0004 12.2651 15.895 12.5194 15.7076 12.7069L9.70757 18.7069C9.61532 18.8024 9.50498 18.8786 9.38297 18.931C9.26097 18.9834 9.12975 19.011 8.99697 19.0122C8.86419 19.0133 8.73251 18.988 8.60962 18.9377C8.48672 18.8875 8.37507 18.8132 8.28117 18.7193C8.18728 18.6254 8.11303 18.5138 8.06275 18.3909C8.01247 18.268 7.98717 18.1363 7.98832 18.0035C7.98947 17.8707 8.01706 17.7395 8.06947 17.6175C8.12188 17.4955 8.19806 17.3852 8.29357 17.2929L13.5866 11.9999L8.29357 6.70692C8.11141 6.51832 8.01062 6.26571 8.0129 6.00352C8.01517 5.74132 8.12034 5.49051 8.30575 5.3051C8.49116 5.11969 8.74197 5.01452 9.00417 5.01224C9.26637 5.00997 9.51897 5.11076 9.70757 5.29292Z" fill="#FDF8EA"/>
</g>
<defs>
<clipPath id="clip0_2003_45">
<rect width="24" height="24" fill="white"/>
</clipPath>
</defs>
</svg>
